<svg xmlns="http://www.w3.org/2000/svg" version="1.1" xmlns:xlink="http://www.w3.org/1999/xlink" xmlns:svgjs="http://svgjs.com/svgjs" width="512" height="512" x="0" y="0" viewBox="0 0 58 58" style="enable-background:new 0 0 512 512" xml:space="preserve" class=""><g><g xmlns="http://www.w3.org/2000/svg" id="Page-1" fill="none" fill-rule="evenodd"><g id="015---Online-Auction" fill-rule="nonzero"><path id="Shape" d="m56 0h-54c-1.10320187.0032948-1.9967052.89679813-2 2v37h58v-37c-.0032948-1.10320187-.8967981-1.9967052-2-2z" fill="#14a085" data-original="#14a085" class=""></path><path id="Rectangle-path" d="m20 43h18v10h-18z" fill="#3f5c6c" data-original="#3f5c6c" class=""></path><path id="Shape" d="m58 37v6c-.0032948 1.1032019-.8967981 1.9967052-2 2h-54c-1.10320187-.0032948-1.9967052-.8967981-2-2v-6z" fill="#547580" data-original="#547580" class=""></path><path id="Shape" d="m56.38.04c-9.39.33-56.38 3.66-56.38 36.96v-35c.0032948-1.10320187.89679813-1.9967052 2-2h54c.127818-.00207853.2554163.01135287.38.04z" fill="#26b99a" data-original="#26b99a" class=""></path><path id="Shape" d="m45 57c0 .5522847-.4477153 1-1 1h-30c-.5522847 0-1-.4477153-1-1 .0049563-3.3116533 2.6883467-5.9950437 6-6h20c1.5912989 0 3.1174224.632141 4.2426407 1.7573593s1.7573593 2.6513418 1.7573593 4.2426407z" fill="#547580" data-original="#547580" class=""></path><path id="Shape" d="m19.82 22.42-9.7 9.7c-.85794728.8568812-2.14736832 1.1130328-3.26769405.6491479-1.12032574-.4638849-1.85123941-1.5565813-1.85230595-2.7691479-.0039864-.7963104.31326319-1.5605935.88-2.12l9.7-9.7z" fill="#805333" data-original="#805333"></path><path id="Rectangle-path" d="m16.237 9.765h9.998v14.001h-9.998z" fill="#f29c1f" transform="matrix(.707 -.707 .707 .707 -5.635 19.926)" data-original="#f29c1f" class=""></path><path id="Shape" d="m19.82 8.28-7.07 7.07-3.12-1.76c-.31467827-.1682685-.53877058-.4671553-.61208942-.8163845s.01165152-.7130022.23208942-.9936155l7-7c.2807374-.22213177.6451478-.30915209.9959606-.23783301.3508127.07131909.6523192.29371809.8240394.60783301z" fill="#a56a43" data-original="#a56a43"></path><path id="Shape" d="m33.22 21.75-7 7c-.2832383.217901-.6475059.3012571-.9973204.2282189-.3498146-.0730382-.6502952-.2951879-.8226796-.6082189l-1.75-3.12 7.07-7.07 3.12 1.75c.3151737.170417.5392369.4710594.6124669.8217926.0732301.3507333-.011815.7159147-.2324669.9982074z" fill="#a56a43" data-original="#a56a43"></path><path id="Shape" d="m50.674 36.927-4.259-4.858 1.759-1.408c.275065-.2180808.4156434-.5644178.3703906-.9125158-.0452527-.3480979-.2697096-.6469804-.5913906-.7874842l-10.548-4.65c-.3548017-.1568767-.7683213-.0943956-1.0609357.1603031-.2926143.2546987-.4115188.6556527-.3050643 1.0286969l3.014 10.68c.0911265.322536.3377733.5779731.6569219.6803339.3191485.1023608.6683542.0380321.9300781-.1713339l2.633-2.106 4.485 5.079c.1827093.2069435.4428388.3291514.7187657.3376735.275927.0085221.5431024-.0973998.7382343-.2926735l1.414-1.414c.3723689-.3724417.3920495-.9698586.045-1.366z" fill="#464f5d" data-original="#464f5d"></path><g fill="#fff"><path id="Shape" d="m38 20c-.5522847 0-1-.4477153-1-1v-3c0-.5522847.4477153-1 1-1s1 .4477153 1 1v3c0 .5522847-.4477153 1-1 1z" fill="#ffffff" data-original="#ffffff"></path><path id="Shape" d="m42 22c-.4043959-.0000863-.7689341-.2437275-.923678-.6173454-.1547439-.373618-.0692299-.8036603.216678-1.0896546l2.5-2.5c.3923789-.3789722 1.0160848-.3735524 1.4018186.0121814s.3911536 1.0094397.0121814 1.4018186l-2.5 2.5c-.1874927.1875494-.4418052.2929434-.707.293z" fill="#ffffff" data-original="#ffffff"></path><path id="Shape" d="m31 6h-2c-.5522847 0-1-.44771525-1-1s.4477153-1 1-1h2c.5522847 0 1 .44771525 1 1s-.4477153 1-1 1z" fill="#ffffff" data-original="#ffffff"></path><path id="Shape" d="m53 6h-18c-.5522847 0-1-.44771525-1-1s.4477153-1 1-1h18c.5522847 0 1 .44771525 1 1s-.4477153 1-1 1z" fill="#ffffff" data-original="#ffffff"></path></g><path id="Shape" d="m31 42h-4c-.5522847 0-1-.4477153-1-1s.4477153-1 1-1h4c.5522847 0 1 .4477153 1 1s-.4477153 1-1 1z" fill="#bdc3c7" data-original="#bdc3c7"></path><path id="Shape" d="m48.507 41h-.061c-.5516139-.0171007-1.0716452-.2613743-1.437-.675l-3.856-4.365-1.888 1.51c-.5235861.4187159-1.2221381.547243-1.8604699.3423091s-1.1315239-.7160656-1.3135301-1.3613091l-3.014-10.677c-.2105487-.7452654.0280781-1.5450993.6125548-2.0531724s1.4097383-.6330547 2.1184452-.3208276l10.548 4.65c.6397055.2819068 1.0857927.8773656 1.1765503 1.5705161.0907575.6931506-.1869878 1.3833842-.7325503 1.8204839l-.944.754 3.57 4.071c.6926391.7933924.6537727 1.9873346-.089 2.734l-1.415 1.414c-.375788.3745087-.88446.5851672-1.415.586zm-5.235-7.417c.2869121-.0001423.5600642.1229582.75.338l4.486 5.079 1.414-1.414-4.259-4.858c-.1798725-.2053962-.2679433-.4754063-.2437699-.7473573.0241735-.2719511.1584889-.5221935.3717699-.6926427l1.759-1.407-10.55-4.65 3.015 10.677 2.633-2.108c.1774098-.1409368.3974228-.2174477.624-.217z" fill="#ffffff" data-original="#ffffff"></path></g></g></g></svg>